<svg width="92" height="21" viewBox="0 0 92 21" fill="none" xmlns="http://www.w3.org/2000/svg">
<path fill-rule="evenodd" clip-rule="evenodd" d="M47.4205 15.4635V8.1792C47.4205 6.38928 45.9884 4.93689 44.1782 4.93689H35.655V7.12634H44.1782C44.7046 7.12634 45.0833 7.67395 45.0833 8.1792V9.021H37.8447C36.0343 9.021 34.6025 10.4319 34.6025 12.2213C34.6025 14.0319 36.034 15.4635 37.8447 15.4635H47.4205ZM48.6099 20.4001H49.1006L49.2508 20.0494H50.0218L50.172 20.4001H50.6627L49.9492 18.7478H49.3234L48.6099 20.4001ZM49.3809 19.7493L49.6363 19.1609L49.8917 19.7493H49.3809ZM52.052 20.4001H52.5529V19.7743H52.8256L53.2389 20.4001H53.7794L53.3664 19.7743C53.5892 19.7467 53.7043 19.639 53.7043 19.4337V19.0883C53.7043 18.8604 53.5617 18.7478 53.2788 18.7478H52.052V20.4001ZM52.5529 19.4738V19.0482H53.1161C53.1737 19.0482 53.2037 19.0707 53.2037 19.1183V19.4037C53.2037 19.4513 53.1737 19.4738 53.1161 19.4738H52.5529ZM55.2316 20.0597C55.2316 20.2876 55.3742 20.4001 55.6571 20.4001H56.8338V20.0996H55.8198C55.7623 20.0996 55.7322 20.0769 55.7322 20.0297V19.1183C55.7322 19.0707 55.7623 19.0482 55.8198 19.0482H56.8338V18.7478H55.6571C55.3742 18.7478 55.2316 18.8604 55.2316 19.0883V20.0597ZM58.3358 20.4001H58.8364V19.6866H59.5627V20.4001H60.0633V18.7478H59.5627V19.3861H58.8364V18.7478H58.3358V20.4001ZM61.6152 20.4001H62.1161V18.7478H61.6152V20.4001ZM63.5431 19.0482H64.2191V20.4001H64.7197V19.0482H65.3958V18.7478H63.5431V19.0482ZM66.8225 20.4001H68.4249V20.0996H67.3234V19.6866H68.2996V19.3861H67.3234V19.0482H68.4249V18.7478H66.8225V20.4001ZM69.927 20.0597C69.927 20.2876 70.0696 20.4001 70.3525 20.4001H71.5291V20.0996H70.5152C70.4576 20.0996 70.4276 20.0769 70.4276 20.0297V19.1183C70.4276 19.0707 70.4576 19.0482 70.5152 19.0482H71.5291V18.7478H70.3525C70.0696 18.7478 69.927 18.8604 69.927 19.0883V20.0597ZM72.9062 19.0482H73.582V20.4001H74.0829V19.0482H74.7586V18.7478H72.9062V19.0482ZM76.1606 20.4001H77.3872C77.6701 20.4001 77.813 20.2876 77.813 20.0597V19.7267C77.813 19.4989 77.6701 19.3861 77.3872 19.3861H76.7491C76.6913 19.3861 76.6612 19.3638 76.6612 19.3162V19.1183C76.6612 19.0707 76.6913 19.0482 76.7491 19.0482H77.6877V18.7478H76.5861C76.3032 18.7478 76.1606 18.8604 76.1606 19.0883V19.3462C76.1606 19.5739 76.3032 19.6866 76.5861 19.6866H77.2248C77.2823 19.6866 77.3121 19.709 77.3121 19.7566V20.0297C77.3121 20.0769 77.2823 20.0996 77.2248 20.0996H76.1606V20.4001ZM36.9184 12.2213C36.9184 11.7159 37.3183 11.1686 37.8447 11.1686H45.0833V13.2738H37.8447C37.3186 13.2738 36.9184 12.7474 36.9184 12.2213ZM49.6831 13.2738V15.4635H59.301C61.0693 15.4635 62.5011 14.0527 62.5011 12.2845C62.5011 10.516 61.0693 9.12646 59.301 9.12646H52.8831C52.3992 9.12646 51.999 8.64221 51.999 8.15784C51.999 7.67358 52.3989 7.12634 52.8831 7.12634H61.8695V4.93689H52.8831C51.1149 4.93689 49.6831 6.38928 49.6831 8.15784C49.6831 9.92639 51.1149 11.2739 52.8831 11.2739H59.301C59.7852 11.2739 60.1852 11.8 60.1852 12.2845C60.1852 12.7687 59.7849 13.2738 59.301 13.2738H49.6831ZM64.5533 13.2738V15.4635H74.171C75.9395 15.4635 77.3713 14.0527 77.3713 12.2845C77.3713 10.516 75.9395 9.12646 74.171 9.12646H67.7534C67.2692 9.12646 66.8692 8.64221 66.8692 8.15784C66.8692 7.67358 67.2692 7.12634 67.7534 7.12634H76.7395V4.93689H67.7534C65.9851 4.93689 64.5533 6.38928 64.5533 8.15784C64.5533 9.92639 65.9848 11.2739 67.7534 11.2739H74.171C74.6555 11.2739 75.0554 11.8 75.0554 12.2845C75.0554 12.7687 74.6552 13.2738 74.171 13.2738H64.5533ZM86.557 15.4635C89.4835 15.4635 91.8204 13.1265 91.8204 10.2002C91.8204 7.29468 89.4832 4.93689 86.557 4.93689H84.2658C81.3395 4.93689 79.0024 7.29468 79.0024 10.2002C79.0024 13.1265 81.3393 15.4635 84.2658 15.4635H86.557ZM84.2658 13.2318C82.6239 13.2318 81.3183 11.8423 81.3183 10.2002C81.3183 8.57898 82.6236 7.16858 84.2658 7.16858H86.557C88.1991 7.16858 89.5045 8.57898 89.5045 10.2002C89.5045 11.8423 88.1988 13.2318 86.557 13.2318H84.2658Z" fill="#E6E6E6"/>
<path fill-rule="evenodd" clip-rule="evenodd" d="M13.4713 8.4679L11.7394 10.2L21.9393 20.4001L32.1392 10.2002L21.9393 0L16.9355 5.00378L18.6675 6.73596L21.9393 3.46423L28.6752 10.2002L21.9393 16.9359L21.787 16.7837C18.7543 13.7509 16.5041 11.5011 13.4713 8.4679ZM18.6675 11.9321L20.3998 10.2L10.1999 0L0 10.2002L10.1999 20.4001L15.2036 15.3965L13.4716 13.6642L10.1999 16.9359L3.4639 10.2002L10.1999 3.46423L10.3521 3.61646C13.3849 6.64929 15.6347 8.89929 18.6675 11.9321Z" fill="#FF7D24"/>
</svg>
