<svg width="768" height="1944" viewBox="0 0 768 1944" fill="none" xmlns="http://www.w3.org/2000/svg">
<g clip-path="url(#clip0_1_467)">
<path fill-rule="evenodd" clip-rule="evenodd" d="M-137.072 795.584L-205.489 863.997L197.406 1266.89L600.3 864L197.406 461.107L-0.239761 658.748L68.1752 727.165L197.406 597.933L463.471 864L197.406 1130.06L191.391 1124.05C71.595 1004.25 -17.2752 915.381 -137.072 795.584ZM68.1778 932.416L136.595 863.998L-266.3 461.107L-669.192 864L-266.3 1266.89L-68.6543 1069.25L-137.066 1000.83L-266.3 1130.06L-532.365 864L-266.3 597.933L-260.284 603.949C-140.488 723.746 -51.6248 812.623 68.1778 932.416Z" fill="white" fill-opacity="0.01"/>
</g>
<defs>
<clipPath id="clip0_1_467">
<rect width="768" height="1944" fill="white" transform="translate(-0.199997)"/>
</clipPath>
</defs>
</svg>
