<svg width="60" height="60" viewBox="0 0 60 60" fill="none" xmlns="http://www.w3.org/2000/svg">
<path fill-rule="evenodd" clip-rule="evenodd" d="M53.7499 27.8966C55.3694 27.8966 57.0398 27.5503 57.5373 29.2625C57.8046 30.1827 57.6592 37.6892 57.6592 39.0018C57.6592 43.3849 57.6592 47.7678 57.6592 52.1506C56.3011 51.4324 55.379 51.6178 53.7499 51.6178V27.8966ZM46.7314 49.9298V52.5948H43.9772C44.2698 51.3397 45.5921 50.0247 46.7314 49.9298ZM18.1238 32.783C18.1238 33.2657 18.6553 33.8491 19.1899 33.8491C19.7195 33.8491 20.967 33.9214 20.967 32.783C20.967 31.3107 18.1238 31.3583 18.1238 32.783ZM26.8305 32.6943C26.8305 34.1964 28.8739 34.2627 28.8739 32.6943C28.8739 31.3966 26.8305 31.4836 26.8305 32.6943ZM26.8305 24.876C26.8305 26.0972 28.8739 26.3604 28.8739 24.6982C28.8739 23.5758 26.8305 23.374 26.8305 24.876ZM26.8305 28.6963C26.8305 30.2111 28.8739 30.285 28.8739 28.6963C28.8739 27.5126 26.8305 27.5126 26.8305 28.6963ZM26.8305 36.6923C26.8305 38.1337 28.8739 38.1337 28.8739 36.6923C28.8739 35.399 26.8305 35.399 26.8305 36.6923ZM0 16.7327V15.6362C0 14.7008 1.03059 13.0433 1.5854 12.6021C4.8475 10.0057 8.8324 11.3015 10.0902 15.5854C10.2393 16.0929 10.4065 16.4229 10.561 16.8914C11.6107 20.0732 13.2142 24.1302 14.4036 27.4414C14.7152 28.3082 15.0315 29.1405 15.336 30.0629C16.1419 32.5049 17.3673 35.4337 18.2236 38.0138C18.8237 39.8212 20.1177 42.9432 20.6305 44.5873C20.7717 45.0397 19.8119 51.3363 19.8119 52.5948H26.8305V45.7542C26.8305 45.1805 27.1632 44.688 27.7191 44.688H33.938C34.3845 44.688 34.8264 45.1299 34.8264 45.5763V52.5948H41.845C41.8561 52.1031 42.279 51.0985 42.4848 50.7473C42.946 49.959 43.4727 49.3546 44.191 48.8109C45.2925 47.9778 46.3527 47.8903 46.7314 47.7086C46.7314 47.0605 46.7146 46.3933 46.7257 45.7484C46.7523 44.1848 48.7749 44.4943 48.7749 45.6653V53.75C48.7749 54.3132 48.2088 54.7271 47.6197 54.7271H18.568C18.0051 54.7271 17.5759 54.1353 17.2579 53.8167L13.8818 50.6183C11.1353 47.8557 11.5588 49.2242 10.2512 45.4532C9.9637 44.644 6.2144 34.5201 6.1653 34.0844C6.1044 33.543 6.56129 32.9607 7.1073 32.9607C8.01291 32.9607 8.0994 33.3824 8.41521 34.2295C8.9725 35.7543 12.6705 45.7928 12.7046 46.1982C12.9418 46.1787 14.2551 45.6849 14.4813 45.5763C14.4493 45.1921 13.6936 43.2111 13.5042 42.7335C12.6839 40.6646 11.8006 37.9418 10.9655 35.7659C9.6409 32.3143 8.259 28.2172 6.9431 24.6849C6.7989 24.2981 6.51961 23.6871 6.4856 23.2767C6.0168 23.3159 5.17911 23.7686 4.6199 23.8987C4.9529 24.5288 6.90201 30.119 6.8876 30.2709C6.81129 31.0703 5.8918 31.5774 5.21429 31.0337C4.6709 30.5978 2.99991 25.4515 2.4987 24.0651L0.417206 18.4172C0.0962982 17.6001 0.0167084 17.2601 0 16.7327ZM30.8284 49.5743C30.8284 50.8984 31.7925 50.7294 32.7829 50.7294V52.5948H28.8739V46.7314H32.7829V48.6859C32.1692 48.6859 30.8284 48.5045 30.8284 49.5743ZM14.1261 47.8862C14.5278 47.8528 17.7896 46.5953 18.3906 46.376L17.8727 50.6562C17.7837 51.6429 18.0694 51.8005 16.592 50.3065L14.5176 48.3832C14.2877 48.2114 14.1998 48.1628 14.1261 47.8862ZM8.44009 22.4774L10.1282 21.8553L12.1504 27.3846C12.9945 29.9427 14.2421 33.118 15.2033 35.7926L16.7283 39.9532C16.9242 40.4476 17.0472 40.9352 17.2346 41.4017L18.2128 44.2438C17.6286 44.3798 17.0274 44.7635 16.4358 44.7767C16.3624 43.8931 8.4614 23.2529 8.44009 22.4774ZM3.90891 21.9442L3.28731 20.1674L8.7953 18.1239L9.41721 19.901C8.65981 20.3018 4.84041 21.4974 3.90891 21.9442ZM2.5764 18.2129C2.4023 17.4652 1.3643 15.8708 2.8187 14.3683C3.05231 14.1268 3.24001 13.9161 3.53731 13.7543C4.7386 13.1018 6.3045 13.3373 7.21899 14.3698C7.73711 14.9548 7.7547 15.4814 8.0847 16.1694L2.5764 18.2129ZM39.5847 0H40.0013C40.4192 0.0715332 40.7789 0.355835 40.7789 0.799683V3.90894C41.9796 3.90894 43.7995 3.60339 43.7995 4.88635V9.86145C44.3727 9.86145 45.754 9.70471 45.754 10.7502V15.814C46.5548 15.814 48.7749 15.4888 48.7749 16.7914V31.7169H51.7065V26.6528C51.7065 26.1616 52.219 25.7644 52.6838 25.7644C55.26 25.7644 57.842 25.3204 59.2424 27.9125C59.3844 28.1755 59.7024 28.9583 59.7024 29.3182V56.1487C59.7024 57.3917 58.0521 59.5248 56.5931 59.5248H10.6611C10.2027 59.5248 9.95041 59.1549 9.95041 58.7251V52.1506C9.95041 50.967 11.9936 50.967 11.9936 52.1506V57.5703H55.7934C57.4353 57.5703 58.3588 55.2767 56.9021 54.1517C55.4743 53.049 51.7065 54.7032 51.7065 52.7726V33.8491H48.7749V40.7789C48.7749 42.1019 46.7314 42.0415 46.7314 40.8677V33.8491H43.7995V40.7789C43.7995 41.8811 42.2759 42.0979 41.8419 41.2263C41.6914 40.9244 41.7526 39.1924 41.7568 38.7349C41.7688 37.4712 42.2838 37.7584 38.1135 37.7584C37.2631 37.7584 38.6898 41.7561 36.9586 41.7561C35.3919 41.7561 35.7148 40.1932 35.7148 38.2913C35.7148 37.6243 36.4634 37.7584 32.8719 37.7584V40.7789C32.8719 41.8811 31.3483 42.0979 30.914 41.2263C30.6966 40.79 30.8284 26.0269 30.8284 24.1654C30.8284 23.3226 31.007 21.8553 30.562 21.8553H25.1424C24.7776 21.8553 24.9655 21.9762 24.9658 22.8311L24.9647 37.4916C24.9647 38.9135 25.4058 41.7561 23.9876 41.7561C23.3702 41.7561 22.8325 41.4916 22.8325 40.7789V16.8801C22.8325 15.6776 24.2305 15.814 24.7872 15.814V13.2375C24.7872 11.3077 26.9195 11.687 26.9195 12.8824V15.814C27.5714 15.814 28.8739 15.6946 28.8739 16.7914V19.812H30.8284C30.8284 15.5616 30.3556 15.814 33.7603 15.814V10.9276C33.7603 9.69543 35.2683 9.86145 35.8038 9.86145C35.7573 9.66223 35.7148 9.65735 35.7148 9.41724C35.7148 3.43652 35.2153 3.90894 38.7354 3.90894V1.06616C38.7354 0.411377 39.1373 0.0771484 39.5847 0ZM37.847 33.8491H41.756V35.7148H37.847V33.8491ZM43.7995 29.8514H46.7314V31.7169H43.7995V29.8514ZM37.847 29.8514H41.756V31.7169H37.847V29.8514ZM35.8038 35.7148H32.8719V29.8514H35.5371C35.9019 29.8514 35.7125 29.9937 35.7145 31.006C35.7171 32.1678 35.6193 34.9233 35.8038 35.7148ZM46.4649 27.8079H43.7995V21.8553H46.4649C46.6696 21.8553 46.7314 21.9172 46.7314 22.1219V27.5411C46.7314 27.7461 46.6696 27.8079 46.4649 27.8079ZM37.847 27.5411V25.8534H41.756V27.8079H38.1135C37.9088 27.8079 37.847 27.7461 37.847 27.5411ZM35.7148 26.2086C35.7148 27.5449 35.8815 27.8079 35.5371 27.8079H32.8719V25.8534H35.5371C35.9118 25.8534 35.7148 25.9918 35.7148 26.2086ZM37.847 22.1219C37.847 21.9172 37.9088 21.8553 38.1135 21.8553H41.4895C41.9343 21.8553 41.756 22.6125 41.756 23.8099H37.847V22.1219ZM43.7995 17.9462H46.7314V19.812H43.7995V17.9462ZM37.847 17.9462H41.756V19.812H37.847V17.9462ZM35.7148 18.2129V23.4545C35.7148 23.6716 35.9118 23.8099 35.5371 23.8099H32.8719V17.9462H35.8038C35.7429 18.0548 35.7148 18.0414 35.7148 18.2129ZM24.876 17.9462H26.8305V19.812H24.876C25.054 19.495 24.9647 18.6125 24.9647 18.2129C24.9647 17.873 24.9922 18.1803 24.876 17.9462ZM41.845 11.9937H43.7108V15.814H41.845V11.9937ZM35.8925 11.9937H39.7128V15.814H35.8925V11.9937ZM37.847 6.21899C37.847 5.84424 37.9853 6.04114 38.2025 6.04114H41.756V9.86145H37.847V6.21899Z" fill="#DBDBDB"/>
</svg>
