<svg width="60" height="49" viewBox="0 0 60 49" fill="none" xmlns="http://www.w3.org/2000/svg">
<path fill-rule="evenodd" clip-rule="evenodd" d="M37.2251 46.8322V38.3922C37.2251 38.094 37.5505 38.0121 37.7747 37.8754L39.7298 36.6325C41.6729 35.3855 43.5568 34.64 44.2346 32.5194C44.5365 31.5744 44.8262 29.4268 45.0433 28.9748L46.3765 29.4184C46.8762 29.6071 50.1199 30.8047 50.5513 30.8405C50.5513 35.7935 50.4731 41.3683 50.5545 46.3023C50.561 46.6978 50.6593 47.0988 50.2849 47.0988H37.4916C37.2869 47.0988 37.2251 47.037 37.2251 46.8322ZM35.1816 47.0988H22.1218V30.8405L27.6301 28.9748L27.9771 30.7599C28.6132 33.986 29.1739 34.4079 32.1559 36.1762L35.4481 38.2145L35.4498 46.2119C35.4554 46.6226 35.5685 47.0988 35.1816 47.0988ZM20.3448 31.5512C20.3448 36.2779 20.2702 41.5943 20.3479 46.3023C20.3544 46.6978 20.4528 47.0988 20.0782 47.0988C13.7534 47.0988 14.938 47.6922 14.9232 44.1647L15.3541 36.3332C15.5428 34.7256 16.813 33.1382 18.2729 32.3222C18.6199 32.1282 19.9306 31.5857 20.3448 31.5512ZM36.4254 36.6153C36.0388 36.6153 32.7982 34.49 32.2497 34.1278C30.719 33.1155 30.3151 33.0758 29.9483 31.3654C29.8528 30.9209 29.6847 30.4576 29.6733 29.9521C30.0177 30.1341 30.022 30.2123 30.2989 30.3929C33.3431 32.3786 36.8064 32.8577 40.1949 31.5004C41.8487 30.8383 41.7894 30.6737 42.9998 29.8633C42.7946 30.7436 42.6546 31.8119 42.3215 32.4721C41.8158 33.4748 39.5056 34.6458 38.4859 35.2996C38.2932 35.4232 36.4314 36.6153 36.4254 36.6153ZM31.0948 28.7083C33.1517 27.62 33.2271 27.9635 33.2271 25.9541C33.5644 25.9617 35.1241 26.4871 36.2477 26.4871C37.0383 26.4871 38.8304 26.118 39.3573 25.8654C39.3573 28.0404 39.6459 27.7328 41.4895 28.7083C40.837 29.6825 37.7265 30.485 36.2477 30.485C35.1394 30.485 34.1671 30.2471 33.3255 29.9424C32.7568 29.7366 31.3976 29.1215 31.0948 28.7083ZM17.0577 22.4007H23.0102V26.0431C23.0102 27.021 23.0989 27.6526 23.0989 28.6195L20.0894 29.6967C19.1613 30.0042 17.9351 30.4013 17.1465 30.9295L17.1501 23.463C17.1445 23.0182 17.0577 22.8462 17.0577 22.4007ZM29.1404 17.7807V14.4933H43.444C43.444 18.4235 43.8627 19.8777 41.0675 22.6891C39.4129 24.3537 36.9875 25.0166 34.7176 24.4637C34.342 24.3723 33.694 24.1841 33.3722 24.0323C31.3477 23.0767 29.1404 20.3614 29.1404 17.7807ZM26.8305 14.4933H27.2746V16.0927C27.2746 16.4173 27.5547 16.2406 27.2327 16.4062C27.068 16.491 27.0544 16.4113 26.8305 16.3592V14.4933ZM45.3098 16.4478V14.4933C45.9673 14.4933 45.8427 14.3683 45.8427 15.9149C45.8427 16.3185 45.6882 16.4163 45.3098 16.4478ZM26.6526 12.0946C28.1948 12.0946 27.7081 10.7253 27.811 9.3439L28.493 7.09378C28.7872 6.43448 29.2328 5.88565 29.6708 5.34C30.3698 4.46939 32.2781 3.30411 33.4048 3.21036C33.4048 4.28494 33.3198 5.56253 33.62 6.37125C33.8587 7.01443 34.7811 7.83023 35.6258 7.83023C36.9856 7.83023 38.1931 7.99942 38.9474 6.4429C39.3227 5.66824 39.1796 4.29434 39.1796 3.21036C39.6558 3.25003 40.2307 3.48978 40.6 3.65567C42.8862 4.68094 44.3208 6.6929 44.7664 9.17325C45.066 10.8411 44.361 12.0946 46.0204 12.0946V12.4501H26.6526V12.0946ZM8.1734 11.5614V7.03055H11.194V8.5408C11.194 8.82376 10.0034 9.89554 9.73499 10.1027C9.14398 10.5589 8.75897 11.1695 8.1734 11.5614ZM1.77667 20.5348C1.77667 19.689 2.8017 19.1204 3.84149 18.0684C4.08099 17.8263 4.16455 17.7867 4.41577 17.5767L7.22235 14.8748C8.17877 14.0756 9.1947 13.0052 10.0601 12.2046L14.0592 8.47452L17.4353 5.27591C17.8421 4.86771 18.1868 4.61575 18.5901 4.20987C19.5363 3.25821 19.9888 2.70291 21.0342 3.76468L26.1198 8.45218C26.1198 8.82156 25.9604 10.272 25.8531 10.4954C25.4366 10.4607 25.317 10.1818 25.0769 9.939L21.6099 6.74283C21.1208 6.29105 20.7482 5.60904 19.9896 5.60904C19.4737 5.60904 17.1368 7.97281 16.5481 8.56448L10.3739 14.3842C10.1426 14.6129 10.021 14.6595 9.7937 14.8698C9.39508 15.2386 9.08386 15.6138 8.6853 15.9827L3.04919 21.1896C2.50439 21.4666 1.77667 21.1911 1.77667 20.5348ZM35.1816 4.89835C35.1816 2.90677 34.8763 1.78873 36.3364 1.78873C37.7745 1.78873 37.4025 2.84525 37.4025 5.34256C37.4025 6.23343 36.5587 6.05313 35.8922 6.05313C35.2834 6.05313 35.1816 5.50211 35.1816 4.89835ZM26.7414 6.58633C26.2787 6.34171 23.3983 3.56094 22.7661 2.92117C21.0739 1.20877 19.5811 0.704987 17.7911 2.52237C16.8633 3.46378 13.5102 6.66946 12.9709 7.03055C12.9709 6.04019 12.6649 5.25381 11.5494 5.25381H7.90686C5.85889 5.25381 6.39655 7.46768 6.39655 9.4296C6.39655 10.3769 6.39178 11.3253 6.39685 12.2726C6.40027 12.9221 6.51337 13.1006 6.15845 13.4558L3.97729 15.5391C2.87256 16.632 0 18.7765 0 20.0904C0 21.0714 0.0690918 21.6309 0.774658 22.3366C1.61829 23.1805 2.88849 23.3388 3.92505 22.7719C4.5788 22.4145 5.6908 21.2692 6.21887 20.7122C6.21887 21.9561 6.21887 23.2 6.21887 24.4439C6.21887 25.9169 5.8949 27.3756 7.37366 27.3756C7.91425 27.3756 8.08685 26.5717 8.08887 26.136L8.08435 20.0016C8.07959 18.3465 8.21729 18.9532 9.61737 17.5367L12.7267 14.6044C14.4088 12.9192 16.2428 11.3607 17.9225 9.67239L18.9901 8.69656C19.3555 8.3306 19.6262 7.98038 20.0782 7.74124C20.4868 8.01468 20.7878 8.46121 21.1705 8.78128L24.5457 11.892C25.0991 12.422 24.7759 12.5279 24.9979 13.5727C25.1912 14.4809 24.0191 18.2249 27.3634 18.2249C27.3634 19.8288 28.2455 21.5048 29.1274 22.6798C31.4297 25.7487 31.4504 23.7572 31.4504 26.5761L29.6733 27.4644C29.1812 27.135 29.0843 26.8424 28.252 26.8424C27.6171 26.8424 25.704 27.8042 24.8757 27.9976C24.8757 26.4871 24.8757 24.9771 24.8757 23.4667C24.876 21.8206 24.8495 20.6236 23.1879 20.6236H16.9687C14.9986 20.6236 15.2807 22.4406 15.2807 23.9107L15.2809 31.3737C15.2832 32.8925 15.283 32.3289 14.6744 33.2544C11.8502 37.5475 16.5574 36.8816 8.08435 36.8816V31.8178C8.08435 30.7333 6.30756 30.5493 6.30756 31.7288V36.9706C6.30756 37.6153 6.6546 38.0629 7.06665 38.3438C7.67615 38.7585 8.03845 38.659 8.97296 38.6587C10.4536 38.6585 11.9344 38.6587 13.4152 38.6587C13.2474 39.0082 13.2219 43.932 13.1439 44.8731C13.0192 46.3792 12.897 47.695 14.2151 48.5196C14.5003 48.6982 15.0757 48.8756 15.5474 48.8756H56.9483C58.1882 48.8756 59.5247 48.091 59.5247 46.7434C59.5247 46.1974 59.6819 45.3683 59.3115 44.9128C58.8619 44.36 57.9316 44.5845 57.7703 45.2554C57.7079 45.5141 57.7476 46.4174 57.7476 46.7434C57.3945 46.98 57.1836 47.0988 56.6815 47.0988H52.5948C52.1223 47.0988 52.3284 45.7768 52.3284 45.4108V31.5512L54.991 32.7088C55.6035 33.1016 56.3867 34.0657 56.7431 34.7769C57.2115 35.7116 57.4021 36.5739 57.3918 37.9484C57.3865 38.6795 57.4767 39.0612 57.4772 39.8175C57.4778 40.5264 57.7284 41.0573 58.4586 41.0573C59.6046 41.0573 59.3282 39.3512 59.1936 38.3678C59.0215 37.1132 59.1534 36.1693 58.7591 34.9821C58.0186 32.7531 56.2578 31.0199 54.0734 30.2505L49.8744 28.7636C49.121 28.5164 44.9087 26.8424 44.1547 26.8424C43.6039 26.8424 43.2195 27.1364 42.9998 27.4644C41.1128 26.4661 41.1341 27.0868 41.1341 25.1544C41.1341 24.8421 42.2361 24.0996 42.4905 23.8455C43.8094 22.5253 45.2208 20.1581 45.2208 18.2249C48.5152 18.2249 47.3938 14.8247 47.6543 13.4618C47.7941 12.7296 47.946 11.7205 47.4967 11.0625C47.2361 10.6807 47.0231 10.6079 46.6424 10.4066C46.6424 6.41776 44.1042 2.63138 40.1896 1.57877C38.0369 0.999542 39.3103 1.54044 38.4451 0.74649C37.2673 -0.334198 35.0589 -0.226166 34.0083 0.970978C33.3484 1.72269 32.3557 1.32559 30.4758 2.41348C28.6605 3.46402 27.6653 4.84085 26.7414 6.58633Z" fill="#DBDBDB"/>
</svg>
