<svg width="12" height="12" viewBox="0 0 12 12" fill="none" xmlns="http://www.w3.org/2000/svg">
<path fill-rule="evenodd" clip-rule="evenodd" d="M0.324341 4.8652L5.31891 0.265961C5.70392 -0.0886536 6.29602 -0.0886536 6.68103 0.265961L11.6756 4.8652C11.8823 5.05539 11.9999 5.32358 11.9999 5.60483V10.9942C11.9999 11.5495 11.5498 11.9997 10.9945 11.9997H8.49695C7.94165 11.9997 7.49146 11.5495 7.49146 10.9942V8.20834C7.49146 7.65341 7.04132 7.20322 6.48602 7.20322H5.51373C4.95874 7.20322 4.50854 7.65341 4.50854 8.20834V10.9942C4.50854 11.5495 4.05841 11.9997 3.50311 11.9997H1.00525C0.450256 11.9997 0 11.5495 0 10.9942V5.60483C0 5.32358 0.117737 5.05539 0.324341 4.8652Z" fill="#FF7D24"/>
</svg>
