<svg width="60" height="55" viewBox="0 0 60 55" fill="none" xmlns="http://www.w3.org/2000/svg">
<path fill-rule="evenodd" clip-rule="evenodd" d="M27.0972 19.1008H47.1756C47.4531 19.1008 48.6085 20.3629 48.7749 20.6112H25.4979C25.6643 20.3629 26.8197 19.1008 27.0972 19.1008ZM36.248 7.99561C37.1259 7.99561 37.0539 9.32812 36.248 9.32812C35.3299 9.32812 35.3299 7.99561 36.248 7.99561ZM36.248 11.194C38.5047 11.194 39.5821 8.31091 37.9604 6.81641C36.322 5.3064 33.7453 6.48877 33.6872 8.62512C33.6507 9.98181 34.8695 11.194 36.248 11.194ZM6.13022 50.9955H10.1282C10.605 50.9955 11.5594 51.5184 11.7275 52.2394H4.53122C4.6882 51.5649 5.66479 50.9955 6.13022 50.9955ZM4.88641 5.41919H11.372C11.6858 5.41919 11.6598 5.70667 11.7091 5.97058C12.1391 8.26721 13.0232 11.6539 13.5553 14.0747L14.2149 17.0576H2.04352L4.54681 6.05676C4.6106 5.75537 4.55161 5.41919 4.88641 5.41919ZM0 17.8574C0 18.5094 0.252319 18.9235 1.0661 18.9235H7.19632V49.13C5.3674 49.13 4.27582 49.306 3.14621 50.8546C2.69522 51.4725 2.1824 52.978 2.57471 53.6615C2.67142 53.8298 3.0614 54.1938 3.28732 54.1938H12.8823C13.2182 54.1938 13.5201 53.9381 13.661 53.7275C13.8728 53.4105 13.8121 53.119 13.7829 52.7677C13.606 50.6432 11.9169 49.13 9.86172 49.13H9.0621V18.9235H11.1943V28.6072C11.1943 30.1373 13.0601 29.8567 13.0601 28.7849V18.9235C14.6356 18.9235 16.6212 19.2722 16.2887 17.6564C16.2031 17.24 16.1382 17.09 16.0424 16.6517L14.4009 9.40869C14.2625 8.71704 14.0941 8.03333 13.913 7.32019L13.4212 5.23572C13.2735 4.56152 13.2412 3.64246 12.4381 3.64246H3.82031C2.88602 3.64246 2.81512 5.46021 2.4877 6.75171C1.82352 9.37268 1.24841 12.5543 0.590698 14.983C0.499817 15.319 0.470306 15.5922 0.3909 15.938C0.266724 16.48 0 17.3054 0 17.8574ZM52.9503 40.5122C52.9503 39.4355 54.095 38.2911 55.1716 38.2911C55.8332 38.2911 55.9964 38.2528 56.6555 38.584C57.3769 38.9469 57.9257 39.9304 57.9257 40.8676V52.2394H52.9503V40.5122ZM16.3471 41.0454C16.3471 40.3296 16.573 39.609 16.9036 39.2028C18.4008 37.363 21.3225 38.5222 21.3225 40.5122V52.2394H16.3471V41.0454ZM17.9464 36.5142C17.4152 36.5583 16.5643 37.0182 16.1481 37.3812C16.0535 37.4641 16.0064 37.5107 15.916 37.5933C15.2478 38.205 14.5704 39.2184 14.5704 40.3344V53.3054C14.5704 53.8933 15.2476 54.1938 15.37 54.1938H42.467C43.5529 54.1938 44.0059 52.2394 42.1118 52.2394H23.188V46.0204C23.188 45.8158 23.2501 45.7539 23.4547 45.7539H50.8181C51.0231 45.7539 51.0849 45.8158 51.0849 46.0204V52.2394C49.9691 52.2394 46.0123 52.0516 45.4484 52.4667C44.5958 53.0934 45.2993 54.1938 46.0208 54.1938H58.9031C59.0267 54.1938 59.7025 53.8907 59.7025 53.3054V40.3344C59.7025 39.3309 59.1809 38.5312 58.6267 37.8567C58.1584 37.286 57.0558 36.5747 56.3267 36.5142C56.3267 35.3907 56.3426 34.2567 56.3301 33.1346C56.3006 30.4658 53.8784 27.8966 51.2626 27.8966H29.8514C29.7034 27.8966 29.4389 28.0935 29.3536 28.1981C29.0358 28.5887 28.9046 29.6881 30.2913 29.6779L48.8636 29.6732C50.8895 29.6732 52.1527 29.5205 53.4314 30.7919C54.9145 32.2665 54.4609 34.2274 54.4609 36.5142C53.0634 36.8398 51.9712 37.8096 51.4389 39.0004C50.6307 40.8092 51.5214 43.9768 50.8181 43.9768H23.4547C23.0496 43.9768 23.1851 43.3468 23.1877 42.9114C23.1953 41.6094 23.2931 40.0844 22.8603 39.0631C22.337 37.8276 21.2114 36.8402 19.8122 36.5142C19.8122 35.4081 19.6441 33.2264 19.931 32.3688C20.2918 31.2896 20.8865 30.4988 21.9436 30.0278C24.1489 29.0457 26.8781 30.4052 27.4272 29.1063C27.6508 28.5771 27.2679 27.8966 26.653 27.8966H23.0105C20.4097 27.8966 18.015 30.4373 17.9433 33.0463C17.9121 34.1807 17.9464 35.3728 17.9464 36.5142ZM24.1654 19.2787V3.28699C24.4137 3.45337 25.6757 4.60876 25.6757 4.88623V17.5018C25.6757 17.9745 24.5432 19.0258 24.1654 19.2787ZM36.337 17.2355H27.4527C27.741 16.6342 27.1879 16.9313 28.3204 15.7935L29.4585 14.5326C29.6887 14.2344 29.7703 14.1823 30.0078 13.9271L31.0929 12.7019C31.8867 11.6331 32.4445 12.9639 34.1399 14.7236C34.3729 14.9658 34.4282 15.1066 34.6694 15.349L36.337 17.2355ZM46.8204 17.2355C46.0641 17.2355 39.1856 17.3618 38.808 17.1628C38.7833 17.1499 37.5415 15.7993 37.4919 15.7252C37.8771 15.1497 39.4384 13.5518 40.0898 12.8148L41.3776 11.3485C41.9272 10.8065 42.2632 10.0386 42.9143 10.2937C43.1657 10.3921 44.6567 12.0503 44.9286 12.3751L46.2189 13.8386C46.6226 14.244 46.7688 14.2509 46.7634 14.613C46.751 15.4661 46.6495 16.5023 46.8204 17.2355ZM46.7314 5.77466C46.7314 6.95276 46.6155 10.7594 46.8204 11.6382C45.2273 10.5714 44.8634 8.43982 42.556 8.43982C41.1534 8.43982 40.6375 9.51392 39.8701 10.2849L39.1147 11.129C38.9784 11.2694 38.8882 11.3357 38.7618 11.4868L38.0461 12.2814C37.8683 12.473 37.8581 12.5361 37.6912 12.7257L36.159 14.3036C35.8818 13.7792 35.6003 13.6802 35.2576 13.2505C34.9214 12.8292 34.6431 12.5796 34.3066 12.158L33.3811 11.129C32.9771 10.7827 32.6461 10.5776 32.0077 10.453C30.4917 10.1576 29.6538 11.6282 28.9848 12.2819C28.7393 12.5216 28.7033 12.6039 28.4924 12.8558C28.2804 13.1096 27.6953 13.7944 27.4527 13.8594C27.6659 13.4796 27.5414 6.36536 27.5414 5.33044H46.8204C46.7739 5.52979 46.7314 5.53455 46.7314 5.77466ZM50.1075 3.7312C50.1075 5.81775 49.9663 18.2908 50.1965 19.2787C49.8688 19.1914 49.2024 18.4232 48.9266 18.1488C48.477 17.7018 48.6862 17.6862 48.6859 16.1693V6.48535C48.6859 5.28027 48.5152 4.83752 48.8798 4.46252C49.1479 4.18665 49.8767 3.37231 50.1965 3.28699C50.15 3.48621 50.1075 3.49133 50.1075 3.7312ZM22.2996 0.888306V21.7664C22.2996 21.8942 22.5422 22.4769 23.0992 22.4769H51.1736C51.8341 22.4769 52.0622 21.8191 52.0622 21.1444V1.42126C52.0622 0.656494 51.6532 0 51.1736 0H46.0208C45.2305 0 44.6278 1.1239 45.4484 1.72705C45.9414 2.08984 48.3667 2.06128 48.7749 1.86536C48.689 2.18713 47.486 3.37561 47.2646 3.37561H27.0085C26.7868 3.37561 25.5838 2.18713 25.4979 1.86536C25.8922 2.05444 39.4019 1.97656 42.0267 1.95801C44.1045 1.9436 43.4957 0 42.467 0H23.0992C22.9757 0 22.2996 0.302979 22.2996 0.888306Z" fill="#DBDBDB"/>
</svg>
