<svg width="8" height="8" viewBox="0 0 8 8" fill="none" xmlns="http://www.w3.org/2000/svg">
<path fill-rule="evenodd" clip-rule="evenodd" d="M2.82928 0.516968C2.13416 0.690796 1.52869 1.09387 1.099 1.64075H2.04175C2.24219 1.20813 2.50885 0.825073 2.82928 0.516968ZM2.51007 5.55957C2.77844 6.0658 3.1507 6.47974 3.59967 6.74707C4.04865 6.47974 4.4209 6.0658 4.68909 5.55957H2.51007ZM1.099 5.55957C1.52869 6.10657 2.13416 6.50977 2.82928 6.68323C2.50885 6.37512 2.24219 5.99243 2.04175 5.55957H1.099ZM4.37018 6.68323C5.06519 6.50977 5.67065 6.10657 6.10034 5.55957H5.1579C4.95715 5.99207 4.6908 6.37512 4.37018 6.68323ZM6.14545 6.146C5.46515 6.82617 4.56085 7.20007 3.59967 7.20007C2.63849 7.20007 1.73395 6.82617 1.05389 6.146C0.374451 5.4657 0 4.56152 0 3.60034C0 2.63855 0.374451 1.7345 1.05389 1.05457C1.73395 0.374756 2.63818 0 3.59967 0C4.56085 0 5.46515 0.374756 6.14545 1.05457C6.8255 1.7345 7.19965 2.63855 7.19965 3.60034C7.19965 4.56152 6.8255 5.4657 6.14545 6.146ZM5.3266 5.13757H6.38019C6.60095 4.73926 6.73907 4.28967 6.77057 3.81091H5.57288C5.5528 4.27576 5.46826 4.72363 5.3266 5.13757ZM5.57288 3.38879H6.77057C6.73907 2.91064 6.60095 2.46106 6.38019 2.06274H5.3266C5.46826 2.47693 5.5528 2.92419 5.57288 3.38879ZM4.88007 2.06274H2.32019C2.16479 2.47009 2.07068 2.91907 2.04858 3.38879H5.15057C5.12897 2.91907 5.03455 2.47009 4.88007 2.06274ZM2.32019 5.13757H4.87927C5.03455 4.73071 5.12897 4.28113 5.15057 3.81091H2.04858C2.07068 4.28113 2.16479 4.73071 2.32019 5.13757ZM6.10034 1.64075C5.67065 1.09387 5.06519 0.690796 4.37018 0.516968C4.6908 0.825073 4.95715 1.20813 5.1579 1.64075H6.10034ZM1.62646 3.81091H0.428894C0.460266 4.28967 0.598389 4.73926 0.819153 5.13757H1.87274C1.73169 4.72363 1.64655 4.27576 1.62646 3.81091ZM1.87274 2.06274H0.819153C0.598389 2.46106 0.460266 2.91064 0.428894 3.38879H1.62646C1.64655 2.92419 1.73169 2.47693 1.87274 2.06274ZM4.68909 1.64075C4.4209 1.13477 4.04865 0.720337 3.59967 0.453247C3.1507 0.720337 2.77844 1.13477 2.51007 1.64075H4.68909Z" fill="#FF7D24"/>
</svg>
